<svg width="210" height="69" viewBox="0 0 210 69" fill="none" xmlns="http://www.w3.org/2000/svg">
<g clip-path="url(#clip0_3_680)">
<path fill-rule="evenodd" clip-rule="evenodd" d="M37.1035 11.9154C37.1035 11.9154 37.1035 11.9154 37.1035 11.9279C37.1035 11.9279 37.1035 11.9279 37.1035 11.9154ZM0 68.9969H5.08891C5.0636 67.0604 5.13955 39.5878 5.05094 38.6259C4.77244 33.4662 2.93689 28.7313 0.012659 24.8334V68.9969H0ZM49.2182 68.9969H54.3071V24.8334C51.3702 28.7313 49.5473 33.4662 49.2688 38.6259C49.1802 39.5254 49.2561 67.1479 49.2308 68.9969H49.2182ZM49.0916 9.62913C49.3321 9.85401 49.5726 10.0914 49.8005 10.3288C47.813 16.313 46.5471 23.9089 46.3825 30.4053C45.5091 24.6085 43.433 18.6867 40.4835 13.6769C40.5088 13.6894 40.5214 13.7019 40.4835 13.6769C37.4706 8.56721 33.483 4.08215 28.7739 0.484103C29.0144 0.321692 29.2549 0.15928 29.4954 -0.015625C31.2677 1.47107 34.2299 3.18264 39.1036 4.34451C42.8887 5.24402 46.4079 7.06803 49.0916 9.61664V9.62913ZM54.2058 21.0104C51.1676 24.7834 48.4713 30.8051 47.9649 35.8149C47.3826 28.1441 48.8637 19.2864 50.9904 11.7405C52.9652 14.3391 54.1805 17.4749 54.2058 21.0104ZM32.6222 44.1729C31.2297 42.099 29.3562 40.3624 27.1662 39.1256C23.685 41.0995 21.0266 44.3103 19.7987 48.0832C19.5708 48.7829 19.4695 49.5075 19.4695 50.2446V59.552H21.7228V52.0936C21.7228 49.2326 24.7483 46.659 27.1789 45.4971C29.6094 46.659 32.6475 49.2326 32.6349 52.0936V59.552H34.8882V50.2446C34.8882 49.5075 34.7869 48.7829 34.559 48.0832C34.1033 46.684 33.4577 45.3722 32.6475 44.1729H32.6222ZM39.4961 29.5808C36.344 24.8958 32.1159 20.9855 27.1662 18.1745C19.305 22.6221 13.3046 29.8931 10.507 38.4135C9.98794 39.9876 9.74742 41.6367 9.74742 43.2858V64.3119H14.8363V47.4461C14.7351 41.112 21.7608 35.0653 27.1662 32.5292C32.5716 35.0653 39.5973 41.087 39.4961 47.4461V64.3119H44.585V43.2858C44.585 41.6367 44.3444 39.9876 43.8254 38.4135C42.7874 35.2527 41.3316 32.2918 39.4961 29.5808ZM9.67147 23.0593C8.92459 25.458 8.34227 27.9567 7.94985 30.4178C7.78528 23.9214 6.51938 16.313 4.53192 10.3412C7.34221 7.38036 11.1019 5.35646 15.2288 4.357C20.0772 3.19513 23.052 1.48356 24.8116 -0.00313179C25.0521 0.15928 25.2927 0.321692 25.5332 0.496597C20.824 4.10713 16.8365 8.5797 13.8363 13.6894C13.8489 13.6894 13.8616 13.6644 13.8363 13.6894C12.2033 16.5129 10.6589 19.8361 9.65881 23.0593H9.67147ZM45.1546 33.4662C45.1546 33.4662 45.1546 33.5037 45.1546 33.5162C45.2179 34.1158 45.2812 34.7155 45.3192 35.3027C45.3192 35.2777 45.2939 35.2527 45.2939 35.2402C42.3443 28.4564 37.6099 21.8975 31.5209 17.4874C30.1537 16.5129 28.7359 15.6634 27.2675 14.9637C19.2543 18.7867 12.8109 26.9822 9.2284 35.2402C9.2284 35.2652 9.20309 35.2902 9.20309 35.3152C9.79806 27.1571 12.7096 18.4868 17.3302 12.0528C17.3302 12.0528 17.3302 12.0528 17.3302 12.0403C20.0772 8.10496 23.4318 4.63185 27.2548 1.72093C31.0525 4.59437 34.3818 8.05499 37.1162 11.9404C37.1162 11.9404 37.1162 11.9404 37.1162 11.9529C37.1162 11.9529 37.1162 11.9529 37.1162 11.9404C41.4329 17.8871 44.2685 25.8828 45.142 33.4787L45.1546 33.4662ZM0.113931 21.0229C0.139249 17.4874 1.34185 14.3516 3.32931 11.753C5.45603 19.2989 6.93713 28.1691 6.35481 35.8274C5.84845 30.8051 3.15209 24.7959 0.113931 21.0229Z" fill="url(#paint0_linear_3_680)"/>
<path fill-rule="evenodd" clip-rule="evenodd" d="M70.7498 41.2414C72.2816 42.7155 73.9779 43.815 75.7501 44.5021C77.5224 45.2392 79.1428 45.6015 80.6745 45.6015C82.2062 45.6015 83.3962 45.2392 84.3076 44.5396C85.2191 43.8399 85.6748 42.9529 85.6748 41.8535C85.6748 40.9915 85.3836 40.2169 84.8013 39.5673C84.181 38.9176 83.4848 38.3429 82.6113 37.8557C81.7379 37.4059 80.2947 36.6688 78.3579 35.7318C76.0033 34.595 74.1425 33.3706 72.7753 32.0588C71.4081 30.7595 70.7119 29.1229 70.7119 27.124C70.7119 25.6998 71.1296 24.388 71.9904 23.2511C72.8639 22.1142 74.0538 21.2147 75.6742 20.5651C77.2439 19.9154 79.0668 19.5906 81.1682 19.5906C83.4848 19.5906 85.4722 19.9154 87.1179 20.5276C88.7762 21.1773 90.2573 22.0018 91.5865 22.9388L90.4346 25.1876C87.6623 22.8264 84.8899 21.6395 82.2062 21.6395C80.8011 21.6395 79.5985 21.9268 78.6491 22.5015C77.6996 23.1137 77.2059 23.9757 77.2059 25.0751C77.2059 25.8497 77.4971 26.5868 78.0288 27.199C78.5604 27.8112 79.2314 28.3858 80.0162 28.8356C80.8011 29.2853 81.9151 29.8975 83.3582 30.5846L84.8899 31.3217C87.2065 32.5086 89.1054 33.8079 90.5485 35.2321C91.9916 36.7063 92.7005 38.4179 92.7005 40.3293C92.7005 41.841 92.2448 43.1028 91.3334 44.2022C90.3839 45.3016 89.1434 46.1637 87.5357 46.7758C85.928 47.388 84.1051 47.6754 82.1176 47.6754C79.7631 47.6754 77.573 47.3505 75.5476 46.6509C73.5222 46.0013 71.6613 45.0643 70.0156 43.8399L70.7625 41.2663L70.7498 41.2414ZM95.5108 20.3527H102.499V32.0963H114.158V20.3527H121.145V46.9133H114.158V34.1452H102.499V46.9133H95.5108V20.3527ZM150.033 46.9133H142.425L133.906 28.0235H133.614L125.715 46.9133H123.525L132.665 25.5374L130.348 20.3527H137.83L150.02 46.9133H150.033ZM138.56 38.3429H130.893L130.07 40.3793H139.478L138.56 38.3429ZM158.591 34.3826H161.819C163.971 34.3826 165.578 33.8079 166.654 32.7085C167.73 31.6091 168.262 30.2223 168.262 28.5483C168.262 26.8742 167.73 25.3625 166.692 24.1881C165.616 23.0013 164.009 22.3891 161.819 22.3891H158.591V34.3826ZM163.515 20.3527C166.287 20.3527 168.604 20.6775 170.414 21.3771C172.186 22.0768 173.516 23.0138 174.376 24.1506C175.25 25.2875 175.655 26.5618 175.655 27.9861C175.655 29.1729 175.326 30.3098 174.705 31.3717C174.085 32.4711 173.136 33.3706 171.895 34.1077C170.655 34.8823 169.174 35.3695 167.477 35.5819V35.9068C169.629 36.5564 171.401 37.9431 172.769 40.0295C174.136 42.1159 175.161 44.4396 175.87 46.9258H168.097C167.401 44.3522 166.604 42.3532 165.819 40.8915C164.996 39.4173 163.831 38.243 162.388 37.3435C161.439 36.7313 160.16 36.444 158.591 36.444V46.9258H151.603V20.3652H163.502L163.515 20.3527ZM193.897 46.501C190.795 46.501 188.073 45.9763 185.719 44.9144C183.364 43.8524 181.503 42.3033 180.174 40.3044C178.858 38.3054 178.187 35.9442 178.187 33.1707C178.187 30.3972 178.845 28.036 180.174 25.9497C181.491 23.9133 183.352 22.3141 185.757 21.2147C188.111 20.1153 190.846 19.5781 193.897 19.5781C196.947 19.5781 199.846 20.1028 202.289 21.1648C204.733 22.2267 206.631 23.7758 207.999 25.7748C209.366 27.8111 210.024 30.2223 210.024 32.9958C210.024 35.7693 209.366 38.1305 207.999 40.1794C206.631 42.2158 204.733 43.765 202.289 44.8644C199.846 45.9638 197.036 46.501 193.897 46.501ZM186.504 51.0735C188.2 49.9366 189.846 49.1121 191.466 48.6248C193.074 48.1001 194.567 47.8503 195.884 47.8503C196.922 47.8503 197.821 48.0127 198.606 48.3C199.391 48.5874 200.213 48.9996 201.163 49.5244C201.859 49.9366 202.479 50.2614 202.986 50.4613C203.441 50.6612 203.935 50.7487 204.479 50.7487C205.024 50.7487 205.555 50.6612 206.011 50.5488C206.467 50.3864 206.999 50.0616 207.67 49.5743L208.91 51.2109C205.682 53.3723 202.872 54.4717 200.441 54.4717C199.403 54.4717 198.542 54.3092 197.757 54.0219C196.973 53.7346 196.099 53.2848 195.112 52.7226C194.327 52.2729 193.669 51.9106 193.124 51.6982C192.593 51.4483 191.972 51.3359 191.352 51.3359C190.238 51.3359 188.997 51.8231 187.63 52.8101L186.516 51.0985L186.504 51.0735ZM194.238 44.4646C195.77 44.4646 197.175 44.0523 198.454 43.2777C199.732 42.5032 200.732 41.3163 201.517 39.6922C202.264 38.0556 202.631 36.0192 202.631 33.6205C202.631 31.2218 202.213 29.2978 201.429 27.4613C200.644 25.6248 199.53 24.2006 198.125 23.1762C196.719 22.1517 195.188 21.627 193.491 21.627C192.124 21.627 190.846 21.9893 189.643 22.7639C188.44 23.5385 187.453 24.7253 186.706 26.3994C185.959 28.0735 185.592 30.1474 185.592 32.721C185.592 35.0447 185.959 37.1311 186.744 38.8801C187.491 40.6792 188.516 42.0659 189.846 43.0029C191.162 43.9774 192.618 44.4771 194.226 44.4771L194.238 44.4646Z" fill="white"/>
<path fill-rule="evenodd" clip-rule="evenodd" d="M79.0204 53.9375V60.0217C79.0204 61.1586 78.6533 62.0706 77.9191 62.7702C77.1722 63.4573 76.2355 63.8071 75.0962 63.8071C73.9569 63.8071 73.0201 63.4698 72.2859 62.7702C71.539 62.0831 71.1719 61.1711 71.1719 60.0217V53.9375H72.9062V59.9467C72.9062 60.5839 73.0834 61.1336 73.4252 61.5709C73.767 62.0206 74.3366 62.2455 75.0962 62.2455C75.8557 62.2455 76.4127 62.0206 76.7545 61.5709C77.0963 61.1211 77.2735 60.5839 77.2735 59.9467V53.9375H79.0078H79.0204Z" fill="#D2B937"/>
<path fill-rule="evenodd" clip-rule="evenodd" d="M84.8906 63.5573V53.9375H87.1946L91.7138 61.1336H91.7391V53.9375H93.4734V63.5573H91.2708L86.6502 56.1238H86.6249V63.5573H84.8906Z" fill="#D2B937"/>
<path d="M101.172 53.9375H99.4375V63.5573H101.172V53.9375Z" fill="#D2B937"/>
<path fill-rule="evenodd" clip-rule="evenodd" d="M109.77 63.5573L105.922 53.9375H107.859L110.542 61.3335H110.593L113.302 53.9375H115.176L111.277 63.5573H109.77Z" fill="#D2B937"/>
<path fill-rule="evenodd" clip-rule="evenodd" d="M119.922 63.5573V53.9375H126.378V55.4367H121.656V57.8729H126.137V59.3221H121.656V62.0331H126.631V63.5573H119.922Z" fill="#D2B937"/>
<path fill-rule="evenodd" clip-rule="evenodd" d="M132.122 63.5573V53.9375H135.502C136.148 53.9375 136.743 54.025 137.262 54.1874C137.768 54.3623 138.211 54.6621 138.565 55.0869C138.907 55.5241 139.084 56.0613 139.084 56.6985C139.084 57.3731 138.895 57.9353 138.49 58.3851C138.084 58.8348 137.553 59.1472 136.856 59.2971L139.452 63.5573H137.363L135.11 59.4845H133.844V63.5573H132.109H132.122ZM133.856 58.0852H135.274C136.667 58.0852 137.363 57.623 137.363 56.686C137.363 56.2113 137.173 55.8864 136.793 55.6866C136.426 55.4867 135.958 55.3867 135.413 55.3867H133.844V58.0852H133.856Z" fill="#D2B937"/>
<path fill-rule="evenodd" clip-rule="evenodd" d="M150.693 54.7213L149.567 55.9457C149.389 55.6958 149.124 55.4959 148.794 55.346C148.453 55.1961 148.124 55.1211 147.782 55.1211C147.326 55.1211 146.934 55.2336 146.579 55.4459C146.237 55.6708 146.06 56.0081 146.06 56.4329C146.06 56.6453 146.098 56.8327 146.187 56.9701C146.25 57.12 146.389 57.2575 146.604 57.3824C146.794 57.5073 146.972 57.5823 147.149 57.6572C147.326 57.7197 147.579 57.8072 147.921 57.9196C148.237 58.0195 148.516 58.107 148.719 58.182C148.921 58.2444 149.174 58.3694 149.465 58.5193C149.757 58.6817 149.972 58.8566 150.149 59.0315C150.314 59.2064 150.465 59.4563 150.592 59.7436C150.719 60.0434 150.769 60.3683 150.769 60.7306C150.769 61.7175 150.44 62.4671 149.769 63.0043C149.098 63.5291 148.238 63.8039 147.225 63.8039C146.579 63.8039 145.946 63.679 145.351 63.4416C144.744 63.2167 144.25 62.8669 143.883 62.4421L145.123 61.3053C145.351 61.6176 145.668 61.88 146.073 62.0674C146.478 62.2672 146.858 62.3672 147.25 62.3672C147.718 62.3672 148.136 62.2423 148.491 62.0174C148.832 61.7925 149.01 61.4177 149.01 60.943C149.01 60.7805 148.984 60.6306 148.946 60.4932C148.908 60.3683 148.82 60.2433 148.693 60.1434C148.567 60.0434 148.465 59.9435 148.364 59.8685C148.263 59.8061 148.111 59.7311 147.883 59.6437C147.655 59.5562 147.465 59.5062 147.377 59.4688C147.275 59.4313 147.073 59.3688 146.769 59.2814C146.427 59.1689 146.123 59.069 145.87 58.944C145.617 58.8191 145.377 58.6567 145.111 58.4568C144.845 58.2569 144.642 57.9946 144.503 57.6697C144.364 57.3574 144.301 56.9826 144.301 56.5578C144.301 55.6458 144.655 54.9462 145.364 54.459C146.06 53.9842 146.896 53.7344 147.87 53.7344C148.377 53.7344 148.908 53.8218 149.415 53.9967C149.921 54.1716 150.352 54.434 150.706 54.7713L150.693 54.7213Z" fill="#D2B937"/>
<path d="M158.039 53.9375H156.305V63.5573H158.039V53.9375Z" fill="#D2B937"/>
<path fill-rule="evenodd" clip-rule="evenodd" d="M165.964 63.5573V55.4367H162.977V53.9375H170.686V55.4367H167.698V63.5573H165.964Z" fill="#D2B937"/>
<path fill-rule="evenodd" clip-rule="evenodd" d="M177.815 63.5573V59.3845L174.156 53.9375H176.27L178.726 57.9853L181.207 53.9375H183.207L179.549 59.3845V63.5573H177.815Z" fill="#D2B937"/>
</g>
<defs>
<linearGradient id="paint0_linear_3_680" x1="22.3558" y1="3.0577" x2="29.6819" y2="68.9559" gradientUnits="userSpaceOnUse">
<stop stop-color="#ECE49A"/>
<stop offset="0.19" stop-color="#FDED68"/>
<stop offset="0.42" stop-color="#B49404"/>
<stop offset="0.68" stop-color="#E3BD3F"/>
<stop offset="1" stop-color="#A27C25"/>
</linearGradient>
<clipPath id="clip0_3_680">
<rect width="210" height="69" fill="white"/>
</clipPath>
</defs>
</svg>
